<svg version="1.1" id="Layer_1" xmlns="http://www.w3.org/2000/svg" xmlns:xlink="http://www.w3.org/1999/xlink" x="0px" y="0px"
	 width="100%" viewBox="0 0 201 192" enable-background="new 0 0 201 192" xml:space="preserve">
<path fill="#000000" opacity="1.000000" stroke="none" 
	d="
M123.000000,193.000000 
	C82.025780,193.000000 41.551552,193.000000 1.038665,193.000000 
	C1.038665,129.066528 1.038665,65.133034 1.038665,1.099765 
	C67.890717,1.099765 134.781631,1.099765 201.836273,1.099765 
	C201.836273,64.999657 201.836273,128.999802 201.836273,193.000000 
	C175.799988,193.000000 149.649994,193.000000 123.000000,193.000000 
M190.998077,111.500000 
	C190.998077,92.175789 191.198761,72.848541 190.907242,53.528728 
	C190.775879,44.823093 190.174255,36.054710 188.869507,27.453835 
	C187.133682,16.011311 175.817612,6.233048 164.327606,6.140720 
	C121.850494,5.799397 79.366486,5.787636 36.892418,6.282732 
	C31.714149,6.343092 25.994471,9.394114 21.548258,12.515636 
	C12.323764,18.991819 10.250227,29.471540 10.148429,39.764526 
	C9.777761,77.243111 9.892355,114.728271 10.129548,152.209015 
	C10.161989,157.335297 11.226420,162.709686 13.016580,167.521423 
	C17.952562,180.788757 28.496565,186.818237 42.107693,186.907135 
	C81.420731,187.163925 120.737091,187.103104 160.050674,186.892029 
	C166.537628,186.857193 172.629791,184.892715 178.192108,180.791702 
	C187.930115,173.612015 190.424683,163.372528 190.868362,152.475815 
	C191.410095,139.170837 190.997803,125.827019 190.998077,111.500000 
z"/>
<path fill="#0372C0" opacity="1.000000" stroke="none" 
	d="
M190.998077,112.000000 
	C190.997803,125.827019 191.410095,139.170837 190.868362,152.475815 
	C190.424683,163.372528 187.930115,173.612015 178.192108,180.791702 
	C172.629791,184.892715 166.537628,186.857193 160.050674,186.892029 
	C120.737091,187.103104 81.420731,187.163925 42.107693,186.907135 
	C28.496565,186.818237 17.952562,180.788757 13.016580,167.521423 
	C11.226420,162.709686 10.161989,157.335297 10.129548,152.209015 
	C9.892355,114.728271 9.777761,77.243111 10.148429,39.764526 
	C10.250227,29.471540 12.323764,18.991819 21.548258,12.515636 
	C25.994471,9.394114 31.714149,6.343092 36.892418,6.282732 
	C79.366486,5.787636 121.850494,5.799397 164.327606,6.140720 
	C175.817612,6.233048 187.133682,16.011311 188.869507,27.453835 
	C190.174255,36.054710 190.775879,44.823093 190.907242,53.528728 
	C191.198761,72.848541 190.998077,92.175789 190.998077,112.000000 
M79.510002,178.669937 
	C91.284622,178.669937 103.059242,178.669937 115.520592,178.669937 
	C115.520592,165.754715 115.520592,153.383759 115.520592,140.974426 
	C122.115524,140.974426 128.010254,140.974426 134.412872,140.974426 
	C134.412872,153.563354 134.412872,165.808472 134.412872,177.934006 
	C144.434204,179.970322 146.018204,178.761032 146.025269,169.505966 
	C146.035583,156.030380 146.027939,142.554810 146.027939,129.094727 
	C152.383621,128.743683 153.084946,127.423714 151.210373,121.311508 
	C149.274948,115.000854 147.908859,108.509171 145.805359,102.261093 
	C145.293518,100.740776 142.876938,98.856506 141.321365,98.842987 
	C116.507233,98.627480 91.690170,98.625954 66.875938,98.834084 
	C65.278732,98.847481 62.773838,100.658623 62.272041,102.161346 
	C60.129944,108.576340 58.649029,115.208771 56.797035,121.724968 
	C55.180241,127.413620 55.830093,128.503479 61.972935,129.360657 
	C61.972935,130.158264 61.967384,130.981995 61.973763,131.805634 
	C62.082081,145.789658 62.249653,159.773621 62.262966,173.757736 
	C62.266541,177.511581 64.095703,178.757477 67.523842,178.684113 
	C71.186249,178.605728 74.851669,178.668655 79.510002,178.669937 
M100.500328,83.502983 
	C89.526497,83.504066 78.550652,83.626648 67.579849,83.444984 
	C63.335777,83.374695 62.046017,85.404388 61.945885,89.183891 
	C61.840981,93.143555 63.429199,94.882973 67.541786,94.866234 
	C91.650581,94.768089 115.760139,94.768906 139.868988,94.856850 
	C143.985352,94.871864 146.035553,93.470360 146.083527,89.112808 
	C146.132431,84.668472 144.018036,83.408051 139.908173,83.454407 
	C127.107018,83.598824 114.303162,83.504684 100.500328,83.502983 
M29.571701,52.990826 
	C29.318499,57.233124 29.065294,61.475422 28.811203,65.732620 
	C32.004364,65.732620 34.554443,65.732620 37.162483,65.732620 
	C37.483421,60.015785 37.784439,54.653790 38.154636,48.059570 
	C41.534832,53.890430 44.162075,58.652222 47.050564,63.249893 
	C47.809990,64.458687 49.289761,65.781181 50.592945,65.966385 
	C53.469170,66.375160 56.443527,66.093445 59.597038,66.093445 
	C60.053921,55.934586 60.481598,46.425163 60.906349,36.980751 
	C57.801338,36.980751 55.374722,36.980751 52.682446,36.980751 
	C52.390472,42.822128 52.113796,48.357502 51.765144,55.332756 
	C48.380985,49.187531 45.795856,44.237953 42.925938,39.459423 
	C42.198799,38.248714 40.648849,36.975204 39.329231,36.791416 
	C36.441101,36.389175 33.458263,36.666893 29.608408,36.666893 
	C29.608408,42.150059 29.608408,47.102341 29.571701,52.990826 
M74.480721,66.207390 
	C78.766800,66.059563 83.120415,66.325806 87.318932,65.641060 
	C91.101570,65.024155 94.279884,62.578983 94.723526,58.470840 
	C95.485947,51.410717 95.733086,44.294952 96.212372,36.959923 
	C92.771370,36.959923 89.877960,36.959923 86.623466,36.959923 
	C86.245712,42.704105 85.981064,48.175495 85.493629,53.626961 
	C85.173599,57.206215 83.964645,60.358948 79.494438,60.012840 
	C75.164009,59.677563 74.801064,56.465096 74.969955,53.074547 
	C75.232727,47.799225 75.537621,42.526001 75.840027,36.969578 
	C72.601738,36.969578 69.716133,36.969578 66.420837,36.969578 
	C66.281227,39.888752 66.175652,42.514172 66.024811,45.136990 
	C65.862267,47.963455 65.709778,50.792110 65.460838,53.611683 
	C64.771904,61.414734 66.204071,63.617649 74.480721,66.207390 
M110.243828,57.824745 
	C107.139946,62.859478 102.853477,58.196987 98.037315,59.350689 
	C99.168785,61.856491 99.934326,65.860077 101.254845,66.052353 
	C105.567245,66.680283 110.310059,66.707687 114.465302,65.506348 
	C120.668549,63.712925 121.841522,57.110390 117.275604,52.460835 
	C115.422646,50.573936 113.137833,49.114681 111.247192,47.259399 
	C110.527504,46.553173 109.801163,45.051868 110.096848,44.330738 
	C110.413765,43.557804 111.927788,42.869682 112.923592,42.863823 
	C115.144119,42.850750 117.367294,43.285622 121.141571,43.714245 
	C119.513680,40.610931 118.738098,36.938484 117.135796,36.533005 
	C113.763855,35.679703 109.810196,35.952328 106.362015,36.821285 
	C99.527893,38.543510 97.937599,45.213104 102.862427,50.226990 
	C105.176453,52.582878 107.653618,54.778526 110.243828,57.824745 
M136.870300,61.006199 
	C135.086472,59.827877 133.302658,58.649555 131.518829,57.471233 
	C131.758545,56.908718 131.998260,56.346207 132.237976,55.783691 
	C137.112534,55.783691 141.987106,55.783691 146.886917,55.783691 
	C147.973419,51.164879 147.217880,47.655510 143.777588,45.061543 
	C140.178024,42.347492 132.652451,42.322792 128.591064,44.870792 
	C124.665909,47.333328 122.444099,53.011814 123.452774,58.003216 
	C124.848366,64.909279 130.595642,67.790611 139.980316,66.667389 
	C144.218994,66.160072 145.698929,64.233345 144.719727,60.095985 
	C142.262604,60.430340 139.990738,60.739483 136.870300,61.006199 
M151.255280,65.914368 
	C153.856400,65.914368 156.457504,65.914368 159.197464,65.914368 
	C159.700851,56.105080 160.182739,46.714710 160.682037,36.985275 
	C157.775314,36.985275 155.063995,36.985275 151.932266,36.985275 
	C151.485733,46.544846 151.046585,55.945892 151.255280,65.914368 
M165.464035,47.952621 
	C165.154541,53.849518 164.845047,59.746414 164.529953,65.749969 
	C167.693405,65.749969 170.399734,65.749969 173.223801,65.749969 
	C173.706406,56.033234 174.172058,46.658138 174.653519,36.964653 
	C171.716888,36.964653 169.011322,36.964653 165.542572,36.964653 
	C165.542572,40.477238 165.542572,43.749416 165.464035,47.952621 
z"/>
<path fill="#F5FAFD" opacity="1.000000" stroke="none" 
	d="
M79.012894,178.669922 
	C74.851669,178.668655 71.186249,178.605728 67.523842,178.684113 
	C64.095703,178.757477 62.266541,177.511581 62.262966,173.757736 
	C62.249653,159.773621 62.082081,145.789658 61.973763,131.805634 
	C61.967384,130.981995 61.972935,130.158264 61.972935,129.360657 
	C55.830093,128.503479 55.180241,127.413620 56.797035,121.724968 
	C58.649029,115.208771 60.129944,108.576340 62.272041,102.161346 
	C62.773838,100.658623 65.278732,98.847481 66.875938,98.834084 
	C91.690170,98.625954 116.507233,98.627480 141.321365,98.842987 
	C142.876938,98.856506 145.293518,100.740776 145.805359,102.261093 
	C147.908859,108.509171 149.274948,115.000854 151.210373,121.311508 
	C153.084946,127.423714 152.383621,128.743683 146.027939,129.094727 
	C146.027939,142.554810 146.035583,156.030380 146.025269,169.505966 
	C146.018204,178.761032 144.434204,179.970322 134.412872,177.934006 
	C134.412872,165.808472 134.412872,153.563354 134.412872,140.974426 
	C128.010254,140.974426 122.115524,140.974426 115.520592,140.974426 
	C115.520592,153.383759 115.520592,165.754715 115.520592,178.669937 
	C103.059242,178.669937 91.284622,178.669937 79.012894,178.669922 
M77.667099,166.943893 
	C86.227074,166.943893 94.787041,166.943893 103.495689,166.943893 
	C103.495689,158.096603 103.495689,149.568344 103.495689,140.618896 
	C98.362976,140.618896 93.569191,140.618896 88.775414,140.618896 
	C83.869125,140.618896 78.962837,140.618896 73.683029,140.618896 
	C73.683029,148.961700 73.577484,156.571060 73.816284,164.169617 
	C73.846222,165.122070 75.693466,166.017441 77.667099,166.943893 
M87.540428,110.219460 
	C85.990646,110.964226 83.358368,111.429626 83.081406,112.502861 
	C81.974419,116.792450 81.122375,121.278969 81.196419,125.675438 
	C81.224686,127.353859 83.871628,130.139084 85.550079,130.318741 
	C87.267082,130.502533 90.529381,128.402496 90.898048,126.794006 
	C92.093109,121.579895 92.271179,116.132698 92.877129,110.434952 
	C90.973442,110.342163 89.689384,110.279579 87.540428,110.219460 
M144.521011,123.030106 
	C143.939423,120.966843 143.382401,118.896278 142.771851,116.841629 
	C140.547211,109.355087 140.094650,109.110153 131.601257,110.943665 
	C132.504486,115.737450 133.400009,120.550278 134.321106,125.358192 
	C134.953033,128.656708 136.702621,131.099243 140.305588,130.592972 
	C143.968414,130.078308 145.690125,127.653763 144.521011,123.030106 
M75.912178,110.782822 
	C67.748116,109.258675 67.560036,109.356667 65.361526,116.627304 
	C64.689003,118.851418 64.135666,121.113464 63.407700,123.318504 
	C62.159023,127.100777 63.558933,129.704239 67.230881,130.529297 
	C70.766212,131.323669 72.922813,129.157471 73.626472,125.801979 
	C74.613991,121.092934 75.381241,116.337685 75.912178,110.782822 
M116.484802,123.740776 
	C116.567909,124.227249 116.698158,124.710983 116.726654,125.200638 
	C116.951065,129.057449 118.957253,131.094406 122.823639,130.529175 
	C126.534370,129.986694 127.556625,127.265900 127.037613,123.907700 
	C126.341858,119.405891 125.488487,114.928444 124.741600,110.662209 
	C121.267494,110.662209 118.419327,110.662209 115.362320,110.662209 
	C115.698280,115.045715 115.999352,118.973953 116.484802,123.740776 
M109.026268,116.579269 
	C109.026268,114.489220 109.026268,112.399178 109.026268,110.338257 
	C105.298080,110.338257 102.286232,110.338257 98.972076,110.338257 
	C98.972076,115.057854 98.977089,119.343758 98.965248,123.629608 
	C98.963890,124.122742 98.829849,124.615089 98.823105,125.108696 
	C98.776375,128.526871 100.962379,130.939026 103.818771,130.508621 
	C105.857567,130.201431 108.271492,127.535225 109.100548,125.377136 
	C109.973991,123.103539 109.162712,120.182747 109.026268,116.579269 
z"/>
<path fill="#F6FBFD" opacity="1.000000" stroke="none" 
	d="
M101.000336,83.503021 
	C114.303162,83.504684 127.107018,83.598824 139.908173,83.454407 
	C144.018036,83.408051 146.132431,84.668472 146.083527,89.112808 
	C146.035553,93.470360 143.985352,94.871864 139.868988,94.856850 
	C115.760139,94.768906 91.650581,94.768089 67.541786,94.866234 
	C63.429199,94.882973 61.840981,93.143555 61.945885,89.183891 
	C62.046017,85.404388 63.335777,83.374695 67.579849,83.444984 
	C78.550652,83.626648 89.526497,83.504066 101.000336,83.503021 
z"/>
<path fill="#F6FCFD" opacity="1.000000" stroke="none" 
	d="
M29.590054,52.522724 
	C29.608408,47.102341 29.608408,42.150059 29.608408,36.666893 
	C33.458263,36.666893 36.441101,36.389175 39.329231,36.791416 
	C40.648849,36.975204 42.198799,38.248714 42.925938,39.459423 
	C45.795856,44.237953 48.380985,49.187531 51.765144,55.332756 
	C52.113796,48.357502 52.390472,42.822128 52.682446,36.980751 
	C55.374722,36.980751 57.801338,36.980751 60.906349,36.980751 
	C60.481598,46.425163 60.053921,55.934586 59.597038,66.093445 
	C56.443527,66.093445 53.469170,66.375160 50.592945,65.966385 
	C49.289761,65.781181 47.809990,64.458687 47.050564,63.249893 
	C44.162075,58.652222 41.534832,53.890430 38.154636,48.059570 
	C37.784439,54.653790 37.483421,60.015785 37.162483,65.732620 
	C34.554443,65.732620 32.004364,65.732620 28.811203,65.732620 
	C29.065294,61.475422 29.318499,57.233124 29.590054,52.522724 
z"/>
<path fill="#F5FBFD" opacity="1.000000" stroke="none" 
	d="
M74.077072,66.140808 
	C66.204071,63.617649 64.771904,61.414734 65.460838,53.611683 
	C65.709778,50.792110 65.862267,47.963455 66.024811,45.136990 
	C66.175652,42.514172 66.281227,39.888752 66.420837,36.969578 
	C69.716133,36.969578 72.601738,36.969578 75.840027,36.969578 
	C75.537621,42.526001 75.232727,47.799225 74.969955,53.074547 
	C74.801064,56.465096 75.164009,59.677563 79.494438,60.012840 
	C83.964645,60.358948 85.173599,57.206215 85.493629,53.626961 
	C85.981064,48.175495 86.245712,42.704105 86.623466,36.959923 
	C89.877960,36.959923 92.771370,36.959923 96.212372,36.959923 
	C95.733086,44.294952 95.485947,51.410717 94.723526,58.470840 
	C94.279884,62.578983 91.101570,65.024155 87.318932,65.641060 
	C83.120415,66.325806 78.766800,66.059563 74.077072,66.140808 
z"/>
<path fill="#EFF8FB" opacity="1.000000" stroke="none" 
	d="
M110.150345,57.435768 
	C107.653618,54.778526 105.176453,52.582878 102.862427,50.226990 
	C97.937599,45.213104 99.527893,38.543510 106.362015,36.821285 
	C109.810196,35.952328 113.763855,35.679703 117.135796,36.533005 
	C118.738098,36.938484 119.513680,40.610931 121.141571,43.714245 
	C117.367294,43.285622 115.144119,42.850750 112.923592,42.863823 
	C111.927788,42.869682 110.413765,43.557804 110.096848,44.330738 
	C109.801163,45.051868 110.527504,46.553173 111.247192,47.259399 
	C113.137833,49.114681 115.422646,50.573936 117.275604,52.460835 
	C121.841522,57.110390 120.668549,63.712925 114.465302,65.506348 
	C110.310059,66.707687 105.567245,66.680283 101.254845,66.052353 
	C99.934326,65.860077 99.168785,61.856491 98.037315,59.350689 
	C102.853477,58.196987 107.139946,62.859478 110.150345,57.435768 
z"/>
<path fill="#EDF7FA" opacity="1.000000" stroke="none" 
	d="
M137.294586,61.027412 
	C139.990738,60.739483 142.262604,60.430340 144.719727,60.095985 
	C145.698929,64.233345 144.218994,66.160072 139.980316,66.667389 
	C130.595642,67.790611 124.848366,64.909279 123.452774,58.003216 
	C122.444099,53.011814 124.665909,47.333328 128.591064,44.870792 
	C132.652451,42.322792 140.178024,42.347492 143.777588,45.061543 
	C147.217880,47.655510 147.973419,51.164879 146.886917,55.783691 
	C141.987106,55.783691 137.112534,55.783691 132.237976,55.783691 
	C131.998260,56.346207 131.758545,56.908718 131.518829,57.471233 
	C133.302658,58.649555 135.086472,59.827877 137.294586,61.027412 
z"/>
<path fill="#F7FCFD" opacity="1.000000" stroke="none" 
	d="
M150.931366,65.630653 
	C151.046585,55.945892 151.485733,46.544846 151.932266,36.985275 
	C155.063995,36.985275 157.775314,36.985275 160.682037,36.985275 
	C160.182739,46.714710 159.700851,56.105080 159.197464,65.914368 
	C156.457504,65.914368 153.856400,65.914368 150.931366,65.630653 
z"/>
<path fill="#F7FCFD" opacity="1.000000" stroke="none" 
	d="
M165.503296,47.487110 
	C165.542572,43.749416 165.542572,40.477238 165.542572,36.964653 
	C169.011322,36.964653 171.716888,36.964653 174.653519,36.964653 
	C174.172058,46.658138 173.706406,56.033234 173.223801,65.749969 
	C170.399734,65.749969 167.693405,65.749969 164.529953,65.749969 
	C164.845047,59.746414 165.154541,53.849518 165.503296,47.487110 
z"/>
<path fill="#0572C0" opacity="1.000000" stroke="none" 
	d="
M77.182892,166.941574 
	C75.693466,166.017441 73.846222,165.122070 73.816284,164.169617 
	C73.577484,156.571060 73.683029,148.961700 73.683029,140.618896 
	C78.962837,140.618896 83.869125,140.618896 88.775414,140.618896 
	C93.569191,140.618896 98.362976,140.618896 103.495689,140.618896 
	C103.495689,149.568344 103.495689,158.096603 103.495689,166.943893 
	C94.787041,166.943893 86.227074,166.943893 77.182892,166.941574 
z"/>
<path fill="#1278C1" opacity="1.000000" stroke="none" 
	d="
M87.972878,110.218231 
	C89.689384,110.279579 90.973442,110.342163 92.877129,110.434952 
	C92.271179,116.132698 92.093109,121.579895 90.898048,126.794006 
	C90.529381,128.402496 87.267082,130.502533 85.550079,130.318741 
	C83.871628,130.139084 81.224686,127.353859 81.196419,125.675438 
	C81.122375,121.278969 81.974419,116.792450 83.081406,112.502861 
	C83.358368,111.429626 85.990646,110.964226 87.972878,110.218231 
z"/>
<path fill="#1279C1" opacity="1.000000" stroke="none" 
	d="
M144.645477,123.417610 
	C145.690125,127.653763 143.968414,130.078308 140.305588,130.592972 
	C136.702621,131.099243 134.953033,128.656708 134.321106,125.358192 
	C133.400009,120.550278 132.504486,115.737450 131.601257,110.943665 
	C140.094650,109.110153 140.547211,109.355087 142.771851,116.841629 
	C143.382401,118.896278 143.939423,120.966843 144.645477,123.417610 
z"/>
<path fill="#1278C1" opacity="1.000000" stroke="none" 
	d="
M76.077438,111.192513 
	C75.381241,116.337685 74.613991,121.092934 73.626472,125.801979 
	C72.922813,129.157471 70.766212,131.323669 67.230881,130.529297 
	C63.558933,129.704239 62.159023,127.100777 63.407700,123.318504 
	C64.135666,121.113464 64.689003,118.851418 65.361526,116.627304 
	C67.560036,109.356667 67.748116,109.258675 76.077438,111.192513 
z"/>
<path fill="#1177C1" opacity="1.000000" stroke="none" 
	d="
M116.392609,123.321487 
	C115.999352,118.973953 115.698280,115.045715 115.362320,110.662209 
	C118.419327,110.662209 121.267494,110.662209 124.741600,110.662209 
	C125.488487,114.928444 126.341858,119.405891 127.037613,123.907700 
	C127.556625,127.265900 126.534370,129.986694 122.823639,130.529175 
	C118.957253,131.094406 116.951065,129.057449 116.726654,125.200638 
	C116.698158,124.710983 116.567909,124.227249 116.392609,123.321487 
z"/>
<path fill="#0A74BF" opacity="1.000000" stroke="none" 
	d="
M109.056885,117.061996 
	C109.162712,120.182747 109.973991,123.103539 109.100548,125.377136 
	C108.271492,127.535225 105.857567,130.201431 103.818771,130.508621 
	C100.962379,130.939026 98.776375,128.526871 98.823105,125.108696 
	C98.829849,124.615089 98.963890,124.122742 98.965248,123.629608 
	C98.977089,119.343758 98.972076,115.057854 98.972076,110.338257 
	C102.286232,110.338257 105.298080,110.338257 109.026268,110.338257 
	C109.026268,112.399178 109.026268,114.489220 109.056885,117.061996 
z"/>
</svg>